<svg xmlns="http://www.w3.org/2000/svg" viewBox="0 0 64 64" fill="none">
  <!-- Hull -->
  <path d="M4 40L10 48H54L60 40" stroke="#c9a84c" stroke-width="2" stroke-linejoin="round"/>
  <!-- Deck -->
  <line x1="8" y1="40" x2="56" y2="40" stroke="#c9a84c" stroke-width="2"/>
  <!-- Superstructure -->
  <rect x="20" y="30" width="24" height="10" rx="1" stroke="#c9a84c" stroke-width="2"/>
  <!-- Bridge -->
  <rect x="28" y="22" width="10" height="8" rx="1" stroke="#c9a84c" stroke-width="2"/>
  <!-- Mast -->
  <line x1="33" y1="22" x2="33" y2="12" stroke="#c9a84c" stroke-width="1.5"/>
  <!-- Antenna -->
  <line x1="29" y1="16" x2="37" y2="16" stroke="#c9a84c" stroke-width="1" opacity="0.6"/>
  <!-- Flag -->
  <path d="M33 12L40 14L33 16" fill="#c9a84c" opacity="0.3"/>
  <!-- Bow -->
  <path d="M8 40L4 40L2 42" stroke="#c9a84c" stroke-width="1.5" opacity="0.5"/>
  <!-- Water line -->
  <path d="M0 52C8 48 16 52 24 48C32 44 40 48 48 44C56 40 64 44 64 44" stroke="#c9a84c" stroke-width="1" opacity="0.2"/>
</svg>
